<?xml version="1.0"?>
<svg xmlns="http://www.w3.org/2000/svg" xmlns:xlink="http://www.w3.org/1999/xlink" version="1.1" id="Capa_1" x="0px" y="0px" viewBox="0 0 512 512" style="enable-background:new 0 0 512 512;" xml:space="preserve" width="512px" height="512px" class=""><g><g><path style="fill:#64B5F6;" d="M110.741,278.144c-3.985-1.654-8.574-0.745-11.627,2.304L64,315.584l-35.115-35.136  c-4.16-4.171-10.914-4.179-15.085-0.019c-2.011,2.006-3.139,4.731-3.134,7.571v213.333c0,5.891,4.776,10.667,10.667,10.667h85.333  c5.891,0,10.667-4.776,10.667-10.667V288C117.333,283.684,114.73,279.793,110.741,278.144z" data-original="#64B5F6" class=""/><path style="fill:#42A5F5;" d="M199.552,195.115c-4.165-4.164-10.917-4.164-15.083,0l-42.667,42.667  c-2.007,2.001-3.135,4.718-3.136,7.552v256c0,5.891,4.776,10.667,10.667,10.667h85.333c5.891,0,10.667-4.776,10.667-10.667v-256  c0.005-2.831-1.115-5.548-3.115-7.552L199.552,195.115z" data-original="#42A5F5" class=""/><path style="fill:#2196F3;" d="M327.552,152.448c-4.165-4.164-10.917-4.164-15.083,0l-42.667,42.667  c-2.007,2.001-3.135,4.718-3.136,7.552v298.667c0,5.891,4.776,10.667,10.667,10.667h85.333c5.891,0,10.667-4.776,10.667-10.667  V202.667c0.005-2.831-1.115-5.548-3.115-7.552L327.552,152.448z" data-original="#2196F3" class=""/><path style="fill:#1976D2;" d="M498.219,131.115l-21.333-21.333c-2.004-1.999-4.721-3.12-7.552-3.115H448  c-2.831-0.005-5.548,1.115-7.552,3.115l-42.667,42.667c-1.999,2.004-3.12,4.721-3.115,7.552v341.333  c0,5.891,4.776,10.667,10.667,10.667h85.333c5.891,0,10.667-4.776,10.667-10.667V138.667  C501.338,135.836,500.218,133.119,498.219,131.115z" data-original="#1976D2" class=""/><path style="fill:#64B5F6" d="M490.667,0h-64c-5.891-0.011-10.675,4.757-10.686,10.648c-0.005,2.84,1.123,5.565,3.134,7.571  l24.469,24.448l-80.917,80.917l-35.115-35.136c-4.165-4.164-10.917-4.164-15.083,0l-77.803,77.803l-35.115-35.136  c-4.165-4.164-10.917-4.164-15.083,0L64,251.584l-35.115-35.136c-4.237-4.093-10.99-3.975-15.083,0.262  c-3.992,4.134-3.992,10.687,0,14.82l42.667,42.667c4.165,4.164,10.917,4.164,15.083,0L192,153.749l35.115,35.115  c4.165,4.164,10.917,4.164,15.083,0L320,111.083l35.115,35.115c4.165,4.164,10.917,4.164,15.083,0l88.469-88.448l24.448,24.448  c2.001,2.007,4.718,3.135,7.552,3.136c1.399,0.003,2.784-0.273,4.075-0.811c3.989-1.649,6.591-5.539,6.592-9.856v-64  C501.333,4.776,496.558,0,490.667,0z" data-original="#64B5F6" class="" data-old_color="#1976D2"/></g></g> </svg>
