<?xml version="1.0" encoding="UTF-8" standalone="no"?>
<!DOCTYPE svg PUBLIC "-//W3C//DTD SVG 1.1//EN" "http://www.w3.org/Graphics/SVG/1.1/DTD/svg11.dtd">
<svg version="1.1" xmlns="http://www.w3.org/2000/svg" xmlns:xlink="http://www.w3.org/1999/xlink" preserveAspectRatio="xMidYMid meet" viewBox="0 0 640 640" width="640" height="640"><defs><path d="M320 510.55C190.54 510.55 85.44 407.24 85.44 279.99C85.44 152.75 190.54 49.44 320 49.44C449.46 49.44 554.56 152.75 554.56 279.99C554.56 407.24 449.46 510.55 320 510.55Z" id="bISD6mbSJ"></path><path d="M408.56 320.17C430.64 320.17 448.56 338.09 448.56 360.17C448.56 382.25 430.64 400.17 408.56 400.17C386.48 400.17 368.56 382.25 368.56 360.17C368.56 338.09 386.48 320.17 408.56 320.17Z" id="baTRkSXxy"></path><path d="M408.56 320.17C430.64 320.17 448.56 338.09 448.56 360.17C448.56 382.25 430.64 400.17 408.56 400.17C386.48 400.17 368.56 382.25 368.56 360.17C368.56 338.09 386.48 320.17 408.56 320.17Z" id="b3PVs2VjOn"></path><path d="M408.56 320.17C430.64 320.17 448.56 338.09 448.56 360.17C448.56 382.25 430.64 400.17 408.56 400.17C386.48 400.17 368.56 382.25 368.56 360.17C368.56 338.09 386.48 320.17 408.56 320.17Z" id="b44chyPrcs"></path><path d="M408.56 320.17C430.64 320.17 448.56 338.09 448.56 360.17C448.56 382.25 430.64 400.17 408.56 400.17C386.48 400.17 368.56 382.25 368.56 360.17C368.56 338.09 386.48 320.17 408.56 320.17Z" id="bNt887aWB"></path><path d="M328.56 360.17L328.56 280.17L488.56 280.17L488.56 360.17L328.56 360.17Z" id="a6oXnPkYIY"></path><path d="M328.56 360.17L328.56 280.17L488.56 280.17L488.56 360.17L328.56 360.17Z" id="cBVNNKPWr"></path><path d="M328.56 360.17L328.56 280.17L488.56 280.17L488.56 360.17L328.56 360.17Z" id="adHeJFEJl"></path><path d="M328.56 360.17L328.56 280.17L488.56 280.17L488.56 360.17L328.56 360.17Z" id="a3vJijHkg6"></path><path d="M408.56 200.17C452.71 200.17 488.56 236.02 488.56 280.17C488.56 324.32 452.71 360.17 408.56 360.17C364.41 360.17 328.56 324.32 328.56 280.17C328.56 236.02 364.41 200.17 408.56 200.17Z" id="dljjVfVSn"></path><path d="M408.56 200.17C452.71 200.17 488.56 236.02 488.56 280.17C488.56 324.32 452.71 360.17 408.56 360.17C364.41 360.17 328.56 324.32 328.56 280.17C328.56 236.02 364.41 200.17 408.56 200.17Z" id="d2x81EZLst"></path><path d="M408.56 200.17C452.71 200.17 488.56 236.02 488.56 280.17C488.56 324.32 452.71 360.17 408.56 360.17C364.41 360.17 328.56 324.32 328.56 280.17C328.56 236.02 364.41 200.17 408.56 200.17Z" id="aN7JSHQpn"></path><path d="M408.56 200.17C452.71 200.17 488.56 236.02 488.56 280.17C488.56 324.32 452.71 360.17 408.56 360.17C364.41 360.17 328.56 324.32 328.56 280.17C328.56 236.02 364.41 200.17 408.56 200.17Z" id="g1fPG4Ogp4"></path><path d="M407.17 240C429.25 240 447.17 257.92 447.17 280C447.17 302.08 429.25 320 407.17 320C385.09 320 367.17 302.08 367.17 280C367.17 257.92 385.09 240 407.17 240Z" id="dI9xWTnOJ"></path><path d="M408.28 292.64L408.28 267.36L448.28 267.36L448.28 292.64L408.28 292.64Z" id="bFqpMOiiy"></path><path d="M596.06 231.84C618.14 231.84 636.06 249.76 636.06 271.84C636.06 293.92 618.14 311.84 596.06 311.84C573.98 311.84 556.06 293.92 556.06 271.84C556.06 249.76 573.98 231.84 596.06 231.84Z" id="b1hwzJ1HtT"></path><path d="M228.56 240.17C250.64 240.17 268.56 258.09 268.56 280.17C268.56 302.25 250.64 320.17 228.56 320.17C206.48 320.17 188.56 302.25 188.56 280.17C188.56 258.09 206.48 240.17 228.56 240.17Z" id="b22rkK1DpA"></path><path d="M228.56 240.17C250.64 240.17 268.56 258.09 268.56 280.17C268.56 302.25 250.64 320.17 228.56 320.17C206.48 320.17 188.56 302.25 188.56 280.17C188.56 258.09 206.48 240.17 228.56 240.17Z" id="d8f0l3kZHO"></path><path d="M228.56 240.17C250.64 240.17 268.56 258.09 268.56 280.17C268.56 302.25 250.64 320.17 228.56 320.17C206.48 320.17 188.56 302.25 188.56 280.17C188.56 258.09 206.48 240.17 228.56 240.17Z" id="a7P5WUBWnD"></path><path d="M228.56 240.17C250.64 240.17 268.56 258.09 268.56 280.17C268.56 302.25 250.64 320.17 228.56 320.17C206.48 320.17 188.56 302.25 188.56 280.17C188.56 258.09 206.48 240.17 228.56 240.17Z" id="b5clPivdpU"></path><path d="M228.56 320.17C250.64 320.17 268.56 338.09 268.56 360.17C268.56 382.25 250.64 400.17 228.56 400.17C206.48 400.17 188.56 382.25 188.56 360.17C188.56 338.09 206.48 320.17 228.56 320.17Z" id="ayAxLSS16"></path><path d="M228.56 320.17C250.64 320.17 268.56 338.09 268.56 360.17C268.56 382.25 250.64 400.17 228.56 400.17C206.48 400.17 188.56 382.25 188.56 360.17C188.56 338.09 206.48 320.17 228.56 320.17Z" id="bwG8HaNNY"></path><path d="M228.56 320.17C250.64 320.17 268.56 338.09 268.56 360.17C268.56 382.25 250.64 400.17 228.56 400.17C206.48 400.17 188.56 382.25 188.56 360.17C188.56 338.09 206.48 320.17 228.56 320.17Z" id="ds5Tob8BU"></path><path d="M228.56 320.17C250.64 320.17 268.56 338.09 268.56 360.17C268.56 382.25 250.64 400.17 228.56 400.17C206.48 400.17 188.56 382.25 188.56 360.17C188.56 338.09 206.48 320.17 228.56 320.17Z" id="g72iuMXja"></path><path d="M148.56 360.17L148.56 280.17L308.56 280.17L308.56 360.17L148.56 360.17Z" id="fRngfjkxW"></path><path d="M148.56 360.17L148.56 280.17L308.56 280.17L308.56 360.17L148.56 360.17Z" id="bK4ONZuyk"></path><path d="M148.56 360.17L148.56 280.17L308.56 280.17L308.56 360.17L148.56 360.17Z" id="cXomjrIyP"></path><path d="M148.56 360.17L148.56 280.17L308.56 280.17L308.56 360.17L148.56 360.17Z" id="dP6FoNH6E"></path><path d="M228.56 200.17C272.71 200.17 308.56 236.02 308.56 280.17C308.56 324.32 272.71 360.17 228.56 360.17C184.41 360.17 148.56 324.32 148.56 280.17C148.56 236.02 184.41 200.17 228.56 200.17Z" id="dv4iNZGFl"></path><path d="M633.56 240C655.64 240 673.56 257.92 673.56 280C673.56 302.08 655.64 320 633.56 320C611.48 320 593.56 302.08 593.56 280C593.56 257.92 611.48 240 633.56 240Z" id="c7XGI3DBZd"></path><path d="M228.56 200.17C272.71 200.17 308.56 236.02 308.56 280.17C308.56 324.32 272.71 360.17 228.56 360.17C184.41 360.17 148.56 324.32 148.56 280.17C148.56 236.02 184.41 200.17 228.56 200.17Z" id="e4mIr2QeQz"></path><path d="M234.12 212.67C278.27 212.67 314.12 248.52 314.12 292.67C314.12 336.82 278.27 372.67 234.12 372.67C189.97 372.67 154.12 336.82 154.12 292.67C154.12 248.52 189.97 212.67 234.12 212.67Z" id="com1ntTq"></path><path d="M228.56 240.17C250.64 240.17 268.56 258.09 268.56 280.17C268.56 302.25 250.64 320.17 228.56 320.17C206.48 320.17 188.56 302.25 188.56 280.17C188.56 258.09 206.48 240.17 228.56 240.17Z" id="a1FmesG6YM"></path><path d="M228.56 240.17C250.64 240.17 268.56 258.09 268.56 280.17C268.56 302.25 250.64 320.17 228.56 320.17C206.48 320.17 188.56 302.25 188.56 280.17C188.56 258.09 206.48 240.17 228.56 240.17Z" id="biAI4tlOM"></path><path d="M228.56 240.17C250.64 240.17 268.56 258.09 268.56 280.17C268.56 302.25 250.64 320.17 228.56 320.17C206.48 320.17 188.56 302.25 188.56 280.17C188.56 258.09 206.48 240.17 228.56 240.17Z" id="aGeNj11R6"></path><path d="M228.56 240.17C250.64 240.17 268.56 258.09 268.56 280.17C268.56 302.25 250.64 320.17 228.56 320.17C206.48 320.17 188.56 302.25 188.56 280.17C188.56 258.09 206.48 240.17 228.56 240.17Z" id="haFOiR1ob"></path><path d="M228.56 200.17C272.71 200.17 308.56 236.02 308.56 280.17C308.56 324.32 272.71 360.17 228.56 360.17C184.41 360.17 148.56 324.32 148.56 280.17C148.56 236.02 184.41 200.17 228.56 200.17Z" id="b30x1CZPYQ"></path><path d="M176.7 571.48L499.79 569.72L500 608.85L176.92 610.61L176.7 571.48Z" id="a2JL2MFo2a"></path><path d="M308.89 323.33L340 323.33L340 440L308.89 440L308.89 323.33Z" id="gt21PLrzO"></path><path d="M229.67 292.64L229.67 267.36L269.67 267.36L269.67 292.64L229.67 292.64Z" id="aCxUUVhKx"></path></defs><g><g><g><use xlink:href="#bISD6mbSJ" opacity="1" fill="#0481f5" fill-opacity="1"></use><g><use xlink:href="#bISD6mbSJ" opacity="1" fill-opacity="0" stroke="#000000" stroke-width="1" stroke-opacity="0"></use></g></g><g><use xlink:href="#baTRkSXxy" opacity="1" fill="#0481f5" fill-opacity="1"></use><g><use xlink:href="#baTRkSXxy" opacity="1" fill-opacity="0" stroke="#000000" stroke-width="1" stroke-opacity="0"></use></g></g><g><use xlink:href="#b3PVs2VjOn" opacity="1" fill="#000000" fill-opacity="0"></use><g><use xlink:href="#b3PVs2VjOn" opacity="1" fill-opacity="0" stroke="#000000" stroke-width="1" stroke-opacity="0"></use></g></g><g><use xlink:href="#b44chyPrcs" opacity="1" fill="#000000" fill-opacity="0"></use><g><use xlink:href="#b44chyPrcs" opacity="1" fill-opacity="0" stroke="#000000" stroke-width="1" stroke-opacity="0"></use></g></g><g><use xlink:href="#bNt887aWB" opacity="1" fill="#000000" fill-opacity="0"></use><g><use xlink:href="#bNt887aWB" opacity="1" fill-opacity="0" stroke="#000000" stroke-width="1" stroke-opacity="0"></use></g></g><g><use xlink:href="#a6oXnPkYIY" opacity="1" fill="#0481f5" fill-opacity="1"></use><g><use xlink:href="#a6oXnPkYIY" opacity="1" fill-opacity="0" stroke="#000000" stroke-width="1" stroke-opacity="0"></use></g></g><g><use xlink:href="#cBVNNKPWr" opacity="1" fill="#000000" fill-opacity="0"></use><g><use xlink:href="#cBVNNKPWr" opacity="1" fill-opacity="0" stroke="#000000" stroke-width="1" stroke-opacity="0"></use></g></g><g><use xlink:href="#adHeJFEJl" opacity="1" fill="#000000" fill-opacity="0"></use><g><use xlink:href="#adHeJFEJl" opacity="1" fill-opacity="0" stroke="#000000" stroke-width="1" stroke-opacity="0"></use></g></g><g><use xlink:href="#a3vJijHkg6" opacity="1" fill="#000000" fill-opacity="0"></use><g><use xlink:href="#a3vJijHkg6" opacity="1" fill-opacity="0" stroke="#000000" stroke-width="1" stroke-opacity="0"></use></g></g><g><use xlink:href="#dljjVfVSn" opacity="1" fill="#ffffff" fill-opacity="1"></use><g><use xlink:href="#dljjVfVSn" opacity="1" fill-opacity="0" stroke="#000000" stroke-width="1" stroke-opacity="0"></use></g></g><g><use xlink:href="#d2x81EZLst" opacity="1" fill="#000000" fill-opacity="0"></use><g><use xlink:href="#d2x81EZLst" opacity="1" fill-opacity="0" stroke="#000000" stroke-width="1" stroke-opacity="0"></use></g></g><g><use xlink:href="#aN7JSHQpn" opacity="1" fill="#000000" fill-opacity="0"></use><g><use xlink:href="#aN7JSHQpn" opacity="1" fill-opacity="0" stroke="#000000" stroke-width="1" stroke-opacity="0"></use></g></g><g><use xlink:href="#g1fPG4Ogp4" opacity="1" fill="#000000" fill-opacity="0"></use><g><use xlink:href="#g1fPG4Ogp4" opacity="1" fill-opacity="0" stroke="#000000" stroke-width="1" stroke-opacity="0"></use></g></g><g><use xlink:href="#dI9xWTnOJ" opacity="1" fill="#0481f5" fill-opacity="1"></use><g><use xlink:href="#dI9xWTnOJ" opacity="1" fill-opacity="0" stroke="#000000" stroke-width="1" stroke-opacity="0"></use></g></g><g><use xlink:href="#bFqpMOiiy" opacity="1" fill="#ffffff" fill-opacity="1"></use><g><use xlink:href="#bFqpMOiiy" opacity="1" fill-opacity="0" stroke="#000000" stroke-width="1" stroke-opacity="0"></use></g></g><g><use xlink:href="#b1hwzJ1HtT" opacity="1" fill="#000000" fill-opacity="0"></use><g><use xlink:href="#b1hwzJ1HtT" opacity="1" fill-opacity="0" stroke="#000000" stroke-width="1" stroke-opacity="0"></use></g></g><g><use xlink:href="#b22rkK1DpA" opacity="1" fill="#ffffff" fill-opacity="1"></use><g><use xlink:href="#b22rkK1DpA" opacity="1" fill-opacity="0" stroke="#000000" stroke-width="1" stroke-opacity="0"></use></g></g><g><use xlink:href="#d8f0l3kZHO" opacity="1" fill="#000000" fill-opacity="0"></use><g><use xlink:href="#d8f0l3kZHO" opacity="1" fill-opacity="0" stroke="#000000" stroke-width="1" stroke-opacity="0"></use></g></g><g><use xlink:href="#a7P5WUBWnD" opacity="1" fill="#000000" fill-opacity="0"></use><g><use xlink:href="#a7P5WUBWnD" opacity="1" fill-opacity="0" stroke="#000000" stroke-width="1" stroke-opacity="0"></use></g></g><g><use xlink:href="#b5clPivdpU" opacity="1" fill="#000000" fill-opacity="0"></use><g><use xlink:href="#b5clPivdpU" opacity="1" fill-opacity="0" stroke="#000000" stroke-width="1" stroke-opacity="0"></use></g></g><g><use xlink:href="#ayAxLSS16" opacity="1" fill="#0481f5" fill-opacity="1"></use><g><use xlink:href="#ayAxLSS16" opacity="1" fill-opacity="0" stroke="#000000" stroke-width="1" stroke-opacity="0"></use></g></g><g><use xlink:href="#bwG8HaNNY" opacity="1" fill="#000000" fill-opacity="0"></use><g><use xlink:href="#bwG8HaNNY" opacity="1" fill-opacity="0" stroke="#000000" stroke-width="1" stroke-opacity="0"></use></g></g><g><use xlink:href="#ds5Tob8BU" opacity="1" fill="#000000" fill-opacity="0"></use><g><use xlink:href="#ds5Tob8BU" opacity="1" fill-opacity="0" stroke="#000000" stroke-width="1" stroke-opacity="0"></use></g></g><g><use xlink:href="#g72iuMXja" opacity="1" fill="#000000" fill-opacity="0"></use><g><use xlink:href="#g72iuMXja" opacity="1" fill-opacity="0" stroke="#000000" stroke-width="1" stroke-opacity="0"></use></g></g><g><use xlink:href="#fRngfjkxW" opacity="1" fill="#0481f5" fill-opacity="1"></use><g><use xlink:href="#fRngfjkxW" opacity="1" fill-opacity="0" stroke="#000000" stroke-width="1" stroke-opacity="0"></use></g></g><g><use xlink:href="#bK4ONZuyk" opacity="1" fill="#000000" fill-opacity="0"></use><g><use xlink:href="#bK4ONZuyk" opacity="1" fill-opacity="0" stroke="#000000" stroke-width="1" stroke-opacity="0"></use></g></g><g><use xlink:href="#cXomjrIyP" opacity="1" fill="#000000" fill-opacity="0"></use><g><use xlink:href="#cXomjrIyP" opacity="1" fill-opacity="0" stroke="#000000" stroke-width="1" stroke-opacity="0"></use></g></g><g><use xlink:href="#dP6FoNH6E" opacity="1" fill="#000000" fill-opacity="0"></use><g><use xlink:href="#dP6FoNH6E" opacity="1" fill-opacity="0" stroke="#000000" stroke-width="1" stroke-opacity="0"></use></g></g><g><use xlink:href="#dv4iNZGFl" opacity="1" fill="#ffffff" fill-opacity="1"></use><g><use xlink:href="#dv4iNZGFl" opacity="1" fill-opacity="0" stroke="#000000" stroke-width="1" stroke-opacity="0"></use></g></g><g><use xlink:href="#c7XGI3DBZd" opacity="1" fill="#000000" fill-opacity="0"></use><g><use xlink:href="#c7XGI3DBZd" opacity="1" fill-opacity="0" stroke="#000000" stroke-width="1" stroke-opacity="0"></use></g></g><g><use xlink:href="#e4mIr2QeQz" opacity="1" fill="#000000" fill-opacity="0"></use><g><use xlink:href="#e4mIr2QeQz" opacity="1" fill-opacity="0" stroke="#000000" stroke-width="1" stroke-opacity="0"></use></g></g><g><use xlink:href="#com1ntTq" opacity="1" fill="#000000" fill-opacity="0"></use><g><use xlink:href="#com1ntTq" opacity="1" fill-opacity="0" stroke="#000000" stroke-width="1" stroke-opacity="0"></use></g></g><g><use xlink:href="#a1FmesG6YM" opacity="1" fill="#0481f5" fill-opacity="1"></use><g><use xlink:href="#a1FmesG6YM" opacity="1" fill-opacity="0" stroke="#000000" stroke-width="1" stroke-opacity="0"></use></g></g><g><use xlink:href="#biAI4tlOM" opacity="1" fill="#000000" fill-opacity="0"></use><g><use xlink:href="#biAI4tlOM" opacity="1" fill-opacity="0" stroke="#000000" stroke-width="1" stroke-opacity="0"></use></g></g><g><use xlink:href="#aGeNj11R6" opacity="1" fill="#000000" fill-opacity="0"></use><g><use xlink:href="#aGeNj11R6" opacity="1" fill-opacity="0" stroke="#000000" stroke-width="1" stroke-opacity="0"></use></g></g><g><use xlink:href="#haFOiR1ob" opacity="1" fill="#000000" fill-opacity="0"></use><g><use xlink:href="#haFOiR1ob" opacity="1" fill-opacity="0" stroke="#000000" stroke-width="1" stroke-opacity="0"></use></g></g><g><use xlink:href="#b30x1CZPYQ" opacity="1" fill="#000000" fill-opacity="0"></use><g><use xlink:href="#b30x1CZPYQ" opacity="1" fill-opacity="0" stroke="#000000" stroke-width="1" stroke-opacity="0"></use></g></g><g><use xlink:href="#a2JL2MFo2a" opacity="1" fill="#ffffff" fill-opacity="1"></use></g><g><use xlink:href="#gt21PLrzO" opacity="1" fill="#0481f5" fill-opacity="1"></use></g><g><use xlink:href="#aCxUUVhKx" opacity="1" fill="#ffffff" fill-opacity="1"></use><g><use xlink:href="#aCxUUVhKx" opacity="1" fill-opacity="0" stroke="#000000" stroke-width="1" stroke-opacity="0"></use></g></g></g></g></svg>